<?xml version="1.0" encoding="UTF-8" standalone="no"?><svg xmlns="http://www.w3.org/2000/svg" xmlns:xlink="http://www.w3.org/1999/xlink" fill="#000000" height="2346.4" preserveAspectRatio="xMidYMid meet" version="1" viewBox="0.0 0.0 569.3 2346.4" width="569.3" zoomAndPan="magnify"><defs><clipPath id="a"><path d="M 0 478 L 569.28125 478 L 569.28125 628 L 0 628 Z M 0 478"/></clipPath><clipPath id="b"><path d="M 185 598 L 384 598 L 384 2346.421875 L 185 2346.421875 Z M 185 598"/></clipPath></defs><g><g clip-path="url(#a)" id="change1_3"><path d="M 569.285156 490 C 569.285156 490 549.011719 535.320312 478.683594 537.449219 C 408.390625 539.578125 347.800781 514.910156 284.640625 627.28125 C 221.519531 514.910156 160.929688 539.578125 90.601562 537.449219 C 20.277344 535.320312 0 490 0 490 C 60.890625 501.699219 154.09375 478.300781 208.578125 478.300781 C 263.066406 478.300781 284.640625 501.699219 284.640625 501.699219 C 284.640625 501.699219 306.21875 478.300781 360.703125 478.300781 C 415.191406 478.300781 508.429688 501.699219 569.285156 490" fill="#ffffff"/></g><g id="change1_1"><path d="M 353.335938 24.410156 L 318.988281 148.160156 L 250.296875 148.160156 L 215.984375 24.410156 C 244.359375 0.570312 284.640625 0 284.640625 0 C 284.640625 0 324.960938 0.570312 353.335938 24.410156" fill="#ffffff"/></g><g id="change1_2"><path d="M 322.121094 451.238281 L 247.195312 451.238281 L 247.195312 164.628906 L 322.121094 164.628906 L 322.121094 451.238281" fill="#ffffff"/></g><g clip-path="url(#b)" id="change1_4"><path d="M 383.414062 682.828125 L 353.335938 2111.46875 C 353.335938 2111.46875 321.558594 2188.058594 284.644531 2346.421875 C 247.761719 2188.058594 215.984375 2111.46875 215.984375 2111.46875 L 185.871094 682.828125 C 214.847656 639.679688 225.621094 598.828125 225.621094 598.828125 C 255.699219 619.839844 265.902344 648.210938 265.902344 648.210938 L 284.644531 1949.671875 L 303.382812 648.210938 C 303.382812 648.210938 313.585938 619.839844 343.664062 598.828125 C 343.664062 598.828125 354.46875 639.679688 383.414062 682.828125" fill="#ffffff"/></g></g></svg>